<?xml version="1.0" encoding="UTF-8" standalone="no"?>
<!DOCTYPE svg PUBLIC "-//W3C//DTD SVG 1.1//EN"
 "http://www.w3.org/Graphics/SVG/1.1/DTD/svg11.dtd">
<!-- Generated by graphviz version 2.47.3 (20210619.1520)
 -->
<!-- Title: dependencies Pages: 1 -->
<svg width="692pt" height="247pt"
 viewBox="0.00 0.00 692.00 246.80" xmlns="http://www.w3.org/2000/svg" xmlns:xlink="http://www.w3.org/1999/xlink">
<g id="graph0" class="graph" transform="scale(1 1) rotate(0) translate(4 242.8)">
<title>dependencies</title>
<polygon fill="white" stroke="transparent" points="-4,4 -4,-242.8 688,-242.8 688,4 -4,4"/>
<text text-anchor="middle" x="342" y="-8.2" font-family="sans-serif" font-size="14.00">dependencies</text>
<g id="clust1" class="cluster">
<title>cluster_AuthModule</title>
<polygon fill="none" stroke="black" stroke-dasharray="1,5" points="8,-32.8 8,-230.8 676,-230.8 676,-32.8 8,-32.8"/>
</g>
<g id="clust3" class="cluster">
<title>cluster_AuthModule_imports</title>
<polygon fill="none" stroke="black" points="438,-40.8 438,-92.8 668,-92.8 668,-40.8 438,-40.8"/>
</g>
<g id="clust4" class="cluster">
<title>cluster_AuthModule_exports</title>
<polygon fill="none" stroke="black" points="310,-170.8 310,-222.8 416,-222.8 416,-170.8 310,-170.8"/>
</g>
<g id="clust6" class="cluster">
<title>cluster_AuthModule_providers</title>
<polygon fill="none" stroke="black" points="16,-40.8 16,-92.8 430,-92.8 430,-40.8 16,-40.8"/>
</g>
<!-- DatabaseModule -->
<g id="node1" class="node">
<title>DatabaseModule</title>
<polygon fill="#8dd3c7" stroke="black" points="660.35,-84.8 657.35,-88.8 636.35,-88.8 633.35,-84.8 549.65,-84.8 549.65,-48.8 660.35,-48.8 660.35,-84.8"/>
<text text-anchor="middle" x="605" y="-62.6" font-family="Times,serif" font-size="14.00">DatabaseModule</text>
</g>
<!-- AuthModule -->
<g id="node3" class="node">
<title>AuthModule</title>
<polygon fill="#8dd3c7" stroke="black" points="406.55,-149.8 403.55,-153.8 382.55,-153.8 379.55,-149.8 319.45,-149.8 319.45,-113.8 406.55,-113.8 406.55,-149.8"/>
<text text-anchor="middle" x="363" y="-127.6" font-family="Times,serif" font-size="14.00">AuthModule</text>
</g>
<!-- DatabaseModule&#45;&gt;AuthModule -->
<g id="edge1" class="edge">
<title>DatabaseModule&#45;&gt;AuthModule</title>
<path fill="none" stroke="black" d="M605,-85.08C605,-106.12 605,-137.8 605,-137.8 605,-137.8 416.82,-137.8 416.82,-137.8"/>
<polygon fill="black" stroke="black" points="416.82,-134.3 406.82,-137.8 416.82,-141.3 416.82,-134.3"/>
</g>
<!-- UserModule -->
<g id="node2" class="node">
<title>UserModule</title>
<polygon fill="#8dd3c7" stroke="black" points="531.98,-84.8 528.98,-88.8 507.98,-88.8 504.98,-84.8 446.02,-84.8 446.02,-48.8 531.98,-48.8 531.98,-84.8"/>
<text text-anchor="middle" x="489" y="-62.6" font-family="Times,serif" font-size="14.00">UserModule</text>
</g>
<!-- UserModule&#45;&gt;AuthModule -->
<g id="edge2" class="edge">
<title>UserModule&#45;&gt;AuthModule</title>
<path fill="none" stroke="black" d="M489,-84.82C489,-102.17 489,-125.8 489,-125.8 489,-125.8 416.72,-125.8 416.72,-125.8"/>
<polygon fill="black" stroke="black" points="416.72,-122.3 406.72,-125.8 416.72,-129.3 416.72,-122.3"/>
</g>
<!-- AuthService  -->
<g id="node4" class="node">
<title>AuthService </title>
<polygon fill="#fb8072" stroke="black" points="407.98,-214.8 318.02,-214.8 318.02,-178.8 407.98,-178.8 407.98,-214.8"/>
<text text-anchor="middle" x="363" y="-192.6" font-family="Times,serif" font-size="14.00">AuthService </text>
</g>
<!-- AuthModule&#45;&gt;AuthService  -->
<g id="edge3" class="edge">
<title>AuthModule&#45;&gt;AuthService </title>
<path fill="none" stroke="black" stroke-dasharray="5,2" d="M363,-149.91C363,-149.91 363,-168.79 363,-168.79"/>
<polygon fill="black" stroke="black" points="359.5,-168.79 363,-178.79 366.5,-168.79 359.5,-168.79"/>
</g>
<!-- AuthService -->
<g id="node5" class="node">
<title>AuthService</title>
<ellipse fill="#fdb462" stroke="black" cx="363" cy="-66.8" rx="59.11" ry="18"/>
<text text-anchor="middle" x="363" y="-62.6" font-family="Times,serif" font-size="14.00">AuthService</text>
</g>
<!-- AuthService&#45;&gt;AuthModule -->
<g id="edge4" class="edge">
<title>AuthService&#45;&gt;AuthModule</title>
<path fill="none" stroke="black" d="M363,-84.91C363,-84.91 363,-103.79 363,-103.79"/>
<polygon fill="black" stroke="black" points="359.5,-103.79 363,-113.79 366.5,-103.79 359.5,-103.79"/>
</g>
<!-- JwtStrategy -->
<g id="node6" class="node">
<title>JwtStrategy</title>
<ellipse fill="#fdb462" stroke="black" cx="229" cy="-66.8" rx="56.76" ry="18"/>
<text text-anchor="middle" x="229" y="-62.6" font-family="Times,serif" font-size="14.00">JwtStrategy</text>
</g>
<!-- JwtStrategy&#45;&gt;AuthModule -->
<g id="edge5" class="edge">
<title>JwtStrategy&#45;&gt;AuthModule</title>
<path fill="none" stroke="black" d="M229,-84.82C229,-102.17 229,-125.8 229,-125.8 229,-125.8 309.12,-125.8 309.12,-125.8"/>
<polygon fill="black" stroke="black" points="309.12,-129.3 319.12,-125.8 309.12,-122.3 309.12,-129.3"/>
</g>
<!-- LocalStrategy -->
<g id="node7" class="node">
<title>LocalStrategy</title>
<ellipse fill="#fdb462" stroke="black" cx="89" cy="-66.8" rx="65.41" ry="18"/>
<text text-anchor="middle" x="89" y="-62.6" font-family="Times,serif" font-size="14.00">LocalStrategy</text>
</g>
<!-- LocalStrategy&#45;&gt;AuthModule -->
<g id="edge6" class="edge">
<title>LocalStrategy&#45;&gt;AuthModule</title>
<path fill="none" stroke="black" d="M89,-85.08C89,-106.12 89,-137.8 89,-137.8 89,-137.8 309.28,-137.8 309.28,-137.8"/>
<polygon fill="black" stroke="black" points="309.28,-141.3 319.28,-137.8 309.28,-134.3 309.28,-141.3"/>
</g>
</g>
</svg>
